PathFileType	4	(X/Y/Z)	\\147.46.242.158\로컬 디스크 (e)\MOCAP Data\Iguana Capture\iguana\Project 2\Capture day 7\Session 2\Take01.trc
DataRate	CameraRate	NumFrames	NumMarkers	Units	OrigDataRate	OrigDataStartFrame	OrigNumFrames
120.0	120.0	6	23	mm	120.0	131	1930
Frame#	Time	ana:head1			ana:head2			ana:bone1			ana:bone2			ana:bone3			ana:tail1			ana:tail2			ana:tail3			ana:tail4			ana:Rforefoot1			ana:Rforefoot2			ana:Rforefoot3			ana:Lforefoot1			ana:Lforefoot2			ana:Lforefoot3			ana:RhindLeg1			ana:RhindLeg2			ana:RhindLeg3			ana:RhindLeg4			ana:LhindLeg1			ana:LhindLeg2			ana:LhindLeg3			ana:LhindLeg4			
		X1	Y1	Z1	X2	Y2	Z2	X3	Y3	Z3	X4	Y4	Z4	X5	Y5	Z5	X6	Y6	Z6	X7	Y7	Z7	X8	Y8	Z8	X9	Y9	Z9	X10	Y10	Z10	X11	Y11	Z11	X12	Y12	Z12	X13	Y13	Z13	X14	Y14	Z14	X15	Y15	Z15	X16	Y16	Z16	X17	Y17	Z17	X18	Y18	Z18	X19	Y19	Z19	X20	Y20	Z20	X21	Y21	Z21	X22	Y22	Z22	X23	Y23	Z23	

1030	8.575	-226.52359	-443.51965	52.29793	-216.16693	-444.87350	52.61934	-197.36256	-448.93649	47.30968	-166.82953	-456.19302	43.63361	-136.05251	-457.26932	40.88620	-100.45535	-454.39569	29.95373	-64.79187	-457.26248	19.16338	-19.76350	-460.12646	8.78057	18.16444	-464.77612	6.83791	-193.96104	-436.58224	28.95460	-182.84540	-429.52213	23.73409	-189.40466	-434.34567	7.37120	-202.40987	-459.34442	30.20759	-202.54758	-472.56805	33.54103	-216.26839	-475.09314	22.93849	-133.30939	-449.33911	32.07492	-135.98241	-431.32004	34.17643	-115.28303	-431.29428	23.60598	-116.42464	-424.57462	20.21435	-130.50006	-467.29712	30.42238	-129.67491	-484.22070	21.59079	-113.03283	-481.36362	5.75408	-125.80267	-484.35794	4.68543	
1031	8.583	-226.97479	-442.53317	52.04290	-217.05719	-444.29926	53.01694	-197.99675	-448.48111	47.33069	-167.73349	-455.78647	43.56882	-137.74213	-457.03439	40.33850	-101.69993	-453.47055	29.29947	-65.91435	-456.27405	18.82973	-20.87245	-459.47379	8.85635	17.04112	-464.30981	6.43263	-194.46181	-436.26401	28.98715	-183.28969	-429.42374	24.08766	-190.09383	-434.07355	7.65874	-204.00392	-458.58673	30.32709	-204.99962	-471.79160	32.36366	-220.28848	-473.77502	23.70910	-134.66887	-449.11331	31.86426	-139.96840	-431.83032	33.76509	-121.05537	-431.01221	21.75137	-122.47375	-421.92139	18.66003	-131.40358	-467.04892	30.26297	-130.32990	-484.27487	21.98998	-113.23880	-481.51462	6.16407	-125.78359	-484.29837	4.63814	
1032	8.592	-227.76431	-442.01733	51.91162	-217.86406	-443.74548	52.66156	-196.96814	-448.36346	45.62311	-168.92328	-455.78305	43.86327	-138.28130	-456.35919	40.51587	-102.99354	-452.55237	28.97298	-67.12934	-455.28122	18.32393	-22.05669	-459.03757	8.38909	15.83211	-464.19360	6.78532	-195.29903	-435.88303	29.04189	-183.88629	-429.30664	24.30870	-190.76553	-433.80960	7.94580	-205.70763	-457.99652	30.33071	-207.80649	-471.05554	31.73071	-223.03110	-471.98511	23.03335	-137.70381	-447.98169	33.45613	-143.82495	-431.58978	33.03616	-126.50868	-428.47186	21.32612	-128.50504	-419.40518	17.19643	-132.25163	-466.44772	29.89033	-130.68239	-484.26642	22.39218	-113.22823	-481.29236	6.11814	-125.80483	-484.20517	4.68857	
1033	8.600	-228.75436	-441.47839	51.82016	-218.78174	-443.16983	52.75663	-197.59009	-447.75104	45.28254	-170.00233	-455.45483	43.64028	-135.89874	-456.13342	36.64330	-103.98473	-451.58966	28.27003	-68.24156	-454.33099	17.67490	-23.05713	-458.35880	8.47500	14.74255	-463.81342	6.54390	-196.39441	-435.27625	29.33276	-184.53528	-429.41556	24.11513	-191.42368	-433.55161	8.23193	-207.15413	-457.22949	30.07192	-210.51274	-470.17566	31.10141	-225.60931	-470.49994	22.33107	-137.42931	-448.04736	31.04052	-147.23708	-431.60532	33.94442	-131.31149	-425.27313	21.10864	-141.75963	-416.91284	23.00592	-133.23061	-466.02039	29.77971	-131.04477	-483.97128	22.44488	-113.17829	-480.99066	5.96402	-125.82385	-484.14120	4.66769	
1034	8.608	-229.59416	-440.89380	52.18213	-219.65634	-442.75424	52.98558	-200.89499	-446.88547	47.65875	-170.94870	-454.89902	43.49972	-137.71072	-455.98318	37.20772	-105.01315	-450.52023	27.72789	-69.35862	-453.42923	17.26451	-24.40275	-458.08142	8.20309	13.66702	-463.76022	6.49788	-196.48988	-435.08984	28.95543	-182.75485	-429.57596	22.19368	-192.07214	-433.29736	8.51665	-208.59573	-456.54669	29.91765	-212.84076	-469.25168	30.27919	-227.05011	-468.71277	20.64579	-138.82977	-447.67542	30.90505	-150.64677	-432.37375	32.98727	-137.06721	-422.24799	20.49893	-145.68613	-415.98492	18.65908	-133.97284	-465.38412	29.20479	-131.38464	-483.30988	22.46803	-113.38140	-480.88940	6.76777	-126.26077	-484.63354	5.35482	
1035	8.617	-230.44617	-440.38388	52.07390	-220.55792	-442.23721	52.79494	-199.67838	-446.45178	45.32074	-171.96674	-454.62402	43.51712	-138.01535	-454.96124	36.28734	-106.09430	-449.47070	27.31164	-70.46108	-452.31897	16.82651	-25.53729	-457.57645	8.24110	12.49494	-463.92142	6.81399	-197.62131	-434.65530	29.13741	-183.14825	-429.40536	22.24370	-192.71481	-433.04459	8.79953	-209.82608	-455.79385	29.59309	-215.08139	-468.31052	28.99158	-230.31865	-468.26767	20.41232	-139.77139	-447.08984	30.51258	-153.14406	-432.92102	32.35539	-143.30209	-420.18417	19.18445	-152.89365	-415.70422	17.99819	-134.86002	-464.73569	29.26580	-131.56816	-482.61768	22.57116	-113.46946	-480.48816	6.80024	-126.06474	-484.26065	5.44189	
